<?xml version="1.0" standalone="no"?>
<!DOCTYPE svg PUBLIC "-//W3C//DTD SVG 20010904//EN"
 "http://www.w3.org/TR/2001/REC-SVG-20010904/DTD/svg10.dtd">
<svg version="1.0" xmlns="http://www.w3.org/2000/svg"
 width="600.000000pt" height="600.000000pt" viewBox="0 0 600.000000 600.000000"
 preserveAspectRatio="xMidYMid meet">

<g transform="translate(0.000000,600.000000) scale(0.100000,-0.100000)"
fill="#000000" stroke="none">
<path d="M0 5925 c0 -41 4 -75 10 -75 22 0 50 -45 50 -80 0 -36 -23 -70 -48
-70 -24 0 -11 -28 18 -39 l30 -10 0 -214 c0 -224 -6 -258 -44 -244 -15 6 -16
-127 -16 -1793 0 -1481 2 -1800 13 -1800 7 0 24 19 37 41 18 33 24 62 28 137
4 87 7 97 31 118 32 28 71 32 72 7 1 -10 0 -46 -1 -80 -4 -121 30 -213 78
-213 26 0 100 75 122 124 22 48 29 86 37 183 4 62 2 77 -17 112 -29 50 -32 44
121 210 63 68 119 131 125 140 9 12 15 382 23 1351 9 1110 14 2024 12 2228
l-1 42 -340 0 -340 0 0 -75z m318 -337 c39 -24 79 -89 88 -144 8 -51 -2 -58
-62 -49 -39 5 -45 10 -51 35 -8 41 -38 67 -58 50 -22 -19 -21 -176 2 -202 21
-23 40 -23 53 2 12 22 52 26 95 10 25 -9 27 -14 20 -46 -9 -49 -24 -71 -63
-96 -67 -41 -169 -3 -211 80 -44 87 -51 222 -15 311 30 76 121 99 202 49z"/>
<path d="M860 5980 c-14 -27 -7 -37 38 -50 65 -18 72 -15 72 30 l0 40 -50 0
c-39 0 -51 -4 -60 -20z"/>
<path d="M5930 5997 c0 -2 16 -41 35 -88 l34 -84 1 88 0 87 -35 0 c-19 0 -35
-1 -35 -3z"/>
<path d="M1484 5817 c-13 -36 1 -50 66 -69 75 -21 90 -18 90 15 0 30 -15 42
-60 51 -19 3 -47 9 -62 12 -20 5 -29 2 -34 -9z"/>
<path d="M1715 5765 c-14 -13 -25 -28 -25 -33 0 -17 29 -34 62 -35 30 -2 33 1
36 29 3 31 -18 64 -39 64 -6 0 -21 -11 -34 -25z"/>
<path d="M2728 5746 c-15 -8 -40 -17 -57 -21 -17 -4 -36 -15 -41 -25 -6 -10
-10 -68 -10 -128 l0 -110 58 -30 c31 -16 85 -34 119 -40 41 -7 79 -22 115 -46
31 -21 84 -43 126 -54 60 -15 78 -25 110 -60 37 -40 72 -55 72 -30 0 6 -6 27
-12 46 -12 33 -12 35 20 62 l34 28 -4 132 c-4 153 -1 149 -113 181 -38 12
-132 41 -207 65 -150 48 -170 51 -210 30z"/>
<path d="M2267 5603 c-4 -3 -7 -17 -7 -29 0 -19 8 -25 43 -34 23 -6 47 -13 53
-15 16 -5 34 15 34 37 0 12 -15 22 -52 33 -59 17 -62 18 -71 8z"/>
<path d="M1454 5526 c-3 -8 -2 -28 4 -43 l9 -28 5 38 c4 39 -7 61 -18 33z"/>
<path d="M1270 5485 c-7 -9 -11 -18 -8 -21 7 -7 58 17 58 28 0 14 -37 9 -50
-7z"/>
<path d="M1837 5483 c-14 -13 -6 -22 38 -46 43 -24 45 -25 45 -6 0 11 -14 28
-32 39 -36 22 -41 23 -51 13z"/>
<path d="M1491 5454 c0 -11 3 -14 6 -6 3 7 2 16 -1 19 -3 4 -6 -2 -5 -13z"/>
<path d="M1145 5430 c-4 -12 -1 -28 6 -37 16 -19 49 -119 49 -150 0 -12 4 -24
9 -28 5 -3 12 -19 16 -35 4 -17 9 -30 12 -30 15 0 131 60 142 74 7 9 10 23 7
32 -6 15 -8 15 -29 0 -12 -9 -39 -25 -60 -37 -59 -31 -69 -17 -61 91 6 75 4
88 -10 93 -9 4 -16 13 -16 21 0 30 -56 35 -65 6z"/>
<path d="M1830 5412 c0 -5 16 -16 36 -25 19 -10 33 -13 29 -7 -9 14 -65 42
-65 32z"/>
<path d="M1797 5403 c-4 -3 -7 -16 -7 -27 1 -21 1 -21 15 -2 8 11 15 23 15 28
0 10 -14 11 -23 1z"/>
<path d="M1910 5391 c0 -24 34 -84 67 -119 40 -41 211 -147 353 -217 85 -43
188 -85 574 -235 229 -89 302 -123 387 -181 157 -106 251 -282 266 -496 3 -46
9 -83 13 -83 3 0 14 16 23 36 15 31 16 37 2 50 -8 9 -15 27 -15 42 0 44 -36
158 -75 237 -60 121 -182 239 -320 308 -27 13 -194 81 -370 151 -405 160 -475
191 -620 279 -179 108 -232 151 -256 210 -11 26 -29 37 -29 18z"/>
<path d="M1932 5251 c8 -14 30 -36 49 -49 19 -13 25 -16 14 -6 -11 11 -33 33
-49 49 -24 25 -27 26 -14 6z"/>
<path d="M2020 5177 c0 -3 12 -12 26 -22 15 -9 23 -12 20 -6 -7 11 -46 35 -46
28z"/>
<path d="M1498 5142 c-6 -22 1 -44 13 -36 12 7 12 41 0 48 -5 3 -11 -2 -13
-12z"/>
<path d="M1280 5056 c0 -13 -7 -37 -15 -52 -17 -32 -11 -106 11 -137 12 -18
13 -18 23 2 13 24 3 211 -10 211 -5 0 -9 -11 -9 -24z"/>
<path d="M1527 4994 c-13 -13 -7 -24 14 -24 11 0 19 5 17 12 -5 14 -22 21 -31
12z"/>
<path d="M1580 4603 c-46 -59 -66 -125 -80 -268 -5 -55 -14 -143 -19 -195 -16
-148 15 -450 58 -562 18 -48 22 -190 7 -280 -16 -95 -10 -141 24 -209 63 -122
151 -232 245 -304 39 -29 80 -64 92 -77 34 -35 73 -85 74 -94 0 -5 19 -25 43
-44 24 -19 53 -52 65 -72 12 -21 26 -38 31 -38 6 0 10 -6 10 -13 0 -21 39 -40
55 -27 10 8 19 8 35 0 16 -9 25 -8 36 1 23 19 26 4 4 -16 -14 -13 -24 -15 -31
-8 -5 5 -21 8 -34 5 -23 -4 -23 -6 -9 -27 8 -13 24 -25 36 -28 16 -5 19 -11
14 -31 -7 -29 5 -34 24 -11 18 21 37 19 51 -7 11 -20 12 -20 21 -3 8 12 7 20
-3 26 -8 5 -12 9 -9 10 3 0 14 2 25 4 11 2 35 8 53 13 24 8 31 8 25 -1 -11
-17 -14 -47 -5 -47 9 0 52 81 52 99 0 10 -3 11 -14 2 -19 -16 -50 -3 -36 14 9
11 7 12 -9 8 -12 -3 -21 -1 -21 6 0 6 6 11 14 11 8 0 17 8 20 18 2 9 7 27 11
39 5 18 2 20 -15 16 -11 -3 -20 -9 -20 -14 0 -5 -6 -9 -14 -9 -8 0 -17 -6 -20
-12 -3 -7 -3 -2 0 12 8 33 24 51 37 43 7 -4 8 0 4 11 -9 22 2 66 15 66 6 0 8
-7 4 -15 -3 -8 -1 -15 4 -15 6 0 10 -12 11 -27 1 -27 1 -26 9 5 9 37 14 45 34
48 8 1 16 -10 18 -27 3 -15 1 -26 -4 -23 -4 3 -8 -5 -8 -16 0 -19 4 -21 25
-16 20 5 25 3 25 -14 0 -11 4 -20 10 -20 5 0 7 -6 4 -14 -3 -8 -1 -17 5 -21 6
-3 14 1 17 10 5 11 10 13 19 5 6 -5 14 -8 17 -5 2 3 10 -5 17 -18 7 -13 21
-29 33 -36 17 -10 22 -10 34 6 14 19 17 14 14 -29 -1 -16 3 -28 9 -28 6 0 11
5 11 10 0 6 7 10 15 10 8 0 15 8 15 18 0 13 8 18 25 18 14 0 25 -4 25 -8 0 -4
5 -8 11 -8 6 0 8 9 4 22 -6 17 -4 20 10 14 13 -5 16 -2 11 10 -9 24 15 12 38
-19 15 -21 17 -30 8 -39 -9 -9 -12 -7 -12 10 0 14 -6 22 -16 22 -15 0 -15 -2
0 -25 9 -14 15 -29 12 -33 -2 -4 2 -16 10 -27 13 -17 14 -16 14 18 0 26 4 37
15 37 8 0 15 6 15 13 0 7 10 17 23 22 12 6 23 20 25 33 2 16 8 22 18 18 18 -7
18 3 -2 25 -14 16 -13 18 13 34 23 14 28 24 30 60 2 48 -14 63 -47 42 -21 -13
-26 -27 -10 -27 6 0 10 -5 10 -12 0 -6 -8 -4 -19 6 -12 11 -21 14 -26 7 -9
-16 -52 -13 -58 4 -4 8 -2 17 3 20 4 3 10 -1 13 -7 4 -14 57 42 69 74 11 27
35 33 54 13 16 -16 18 -15 30 14 7 17 20 31 29 31 8 0 15 9 15 19 0 11 5 23
12 27 6 4 8 3 4 -4 -3 -6 -2 -13 3 -16 5 -3 11 7 13 23 4 27 0 30 -96 76 -56
26 -107 50 -115 54 -9 5 -15 24 -15 54 -1 25 -6 51 -12 57 -16 16 -88 -15
-104 -46 -8 -15 -22 -24 -36 -24 -13 0 -45 -13 -72 -29 -26 -15 -66 -34 -88
-41 -21 -7 -48 -19 -59 -26 -26 -18 -39 -18 -31 1 3 10 -1 15 -14 15 -10 0
-25 -7 -34 -15 -8 -8 -19 -15 -25 -15 -6 0 -11 -5 -11 -11 0 -5 -4 -8 -9 -4
-11 6 -31 -25 -31 -47 1 -7 7 -2 15 12 20 36 20 -1 0 -40 -16 -30 -57 -42 -70
-20 -3 6 1 7 9 4 16 -6 20 -1 30 49 4 15 15 36 25 46 17 17 17 22 6 37 -11 16
-15 16 -29 5 -14 -12 -16 -11 -16 6 0 10 5 24 11 30 7 7 8 13 0 17 -6 4 -18
-2 -28 -14 -21 -24 -33 -26 -33 -5 0 8 6 15 13 15 9 0 9 2 -1 8 -8 5 -10 16
-6 27 6 14 4 17 -9 12 -11 -4 -17 -1 -17 8 0 8 8 15 18 15 9 1 2 7 -16 15 -25
11 -39 12 -54 4 -11 -6 -26 -8 -34 -5 -8 3 -14 2 -14 -3 0 -4 -7 -8 -16 -8
-15 0 -15 2 1 13 9 7 23 10 30 7 17 -6 64 27 65 45 0 16 -10 15 -32 -5 -17
-15 -18 -15 -18 0 0 10 5 17 10 17 6 0 10 11 10 25 0 18 -7 28 -25 35 -23 9
-25 13 -19 50 5 33 4 40 -10 40 -9 0 -16 5 -16 10 0 6 5 10 10 10 6 0 10 7 10
15 0 18 -16 20 -23 3 -3 -7 -6 6 -6 30 -1 25 -6 42 -13 42 -6 0 -2 9 10 20 26
25 28 32 6 23 -14 -5 -15 -3 -5 15 9 16 8 24 -4 36 -18 18 -10 66 11 66 17 0
18 14 3 42 -9 16 -7 24 10 39 22 21 27 39 12 39 -5 0 -12 -6 -15 -12 -3 -7 -4
3 -1 22 5 33 4 34 -7 10 -16 -34 -15 -33 -27 -25 -16 9 19 57 37 50 8 -3 21 3
29 12 10 13 16 15 19 6 8 -19 24 -15 17 4 -4 11 -3 14 5 9 16 -10 44 37 36 59
-7 16 -3 17 31 12 29 -5 41 -2 51 10 10 14 16 15 38 5 14 -6 32 -9 40 -6 7 3
16 -2 19 -10 11 -28 35 -17 48 21 10 31 9 38 -5 48 -9 7 -16 15 -16 19 0 17
-46 66 -62 66 -13 0 -18 8 -18 30 0 25 4 30 25 30 14 0 25 -5 25 -11 0 -6 6
-9 14 -6 8 3 16 -2 19 -14 8 -30 27 -23 27 10 0 16 5 31 10 33 6 2 -4 10 -22
19 -18 9 -116 57 -218 107 -265 130 -406 213 -545 325 -76 60 -113 104 -118
136 -5 33 -13 34 -37 4z m904 -594 c-3 -5 -10 -7 -15 -3 -5 3 -7 10 -3 15 3 5
10 7 15 3 5 -3 7 -10 3 -15z m-779 -40 c33 -11 81 -46 73 -55 -3 -2 -28 7 -55
22 -28 14 -70 28 -94 31 -39 6 -45 4 -71 -28 -32 -38 -38 -22 -8 21 18 25 24
27 72 23 29 -3 67 -9 83 -14z m-178 -91 c-3 -8 -6 -5 -6 6 -1 11 2 17 5 13 3
-3 4 -12 1 -19z m313 -18 c11 -11 17 -20 13 -20 -5 0 -1 -6 7 -13 31 -25 62
-119 65 -198 3 -60 -16 -139 -32 -139 -7 0 -13 -4 -13 -10 0 -5 5 -10 12 -10
6 0 2 -10 -10 -23 -12 -13 -23 -39 -24 -60 -2 -20 -6 -37 -10 -37 -3 0 -16 20
-28 45 -12 25 -27 45 -33 45 -7 0 -4 5 6 11 25 14 21 29 -8 29 -14 0 -25 6
-25 13 0 8 -3 9 -8 1 -10 -16 -55 -25 -72 -14 -10 6 -15 26 -15 60 0 28 -5 54
-12 58 -13 8 -30 67 -17 60 5 -2 28 -12 50 -22 39 -17 64 -49 64 -81 0 -8 3
-15 8 -14 20 3 51 -15 55 -33 4 -12 10 -17 18 -13 8 5 10 24 5 59 -4 39 -1 60
15 93 11 24 23 43 25 43 3 0 2 -4 -1 -10 -3 -5 -2 -10 3 -10 23 0 19 35 -9 88
-42 78 -41 76 -49 63 -4 -7 -7 4 -8 24 -2 41 1 42 28 15z m-55 -61 c-3 -3 -28
-9 -56 -13 -40 -5 -59 -14 -80 -38 l-29 -30 0 30 c0 30 33 62 63 62 8 0 20 6
26 14 10 11 17 11 46 -2 18 -9 32 -19 30 -23z m58 -36 c-7 -3 -13 -9 -13 -14
0 -6 5 -7 10 -4 6 3 10 1 10 -4 0 -6 -9 -11 -20 -11 -15 0 -20 7 -20 28 0 37
10 46 29 26 12 -12 13 -18 4 -21z m-123 -33 c0 -5 -4 -10 -10 -10 -5 0 -10 5
-10 10 0 6 5 10 10 10 6 0 10 -4 10 -10z m170 -310 c0 -5 -4 -10 -10 -10 -5 0
-10 5 -10 10 0 6 5 10 10 10 6 0 10 -4 10 -10z m230 -14 c0 -17 -14 -29 -23
-20 -8 8 3 34 14 34 5 0 9 -6 9 -14z m-68 -18 c-7 -7 -12 -8 -12 -2 0 14 12
26 19 19 2 -3 -1 -11 -7 -17z m-255 -28 c27 0 33 -4 33 -21 0 -13 4 -18 12
-13 7 4 8 3 4 -4 -11 -18 -24 -14 -31 8 -6 18 -12 20 -50 14 -54 -8 -69 0 -55
27 10 18 13 18 33 4 12 -8 36 -15 54 -15z m163 6 c0 -2 -7 -7 -16 -10 -8 -3
-12 -2 -9 4 6 10 25 14 25 6z m96 -114 c-18 -16 -18 -16 -6 6 6 13 14 21 18
18 3 -4 -2 -14 -12 -24z m37 -37 c-3 -9 -8 -14 -10 -11 -3 3 -2 9 2 15 9 16
15 13 8 -4z m-12 -62 c-12 -20 -14 -14 -5 12 4 9 9 14 11 11 3 -2 0 -13 -6
-23z m-286 -3 c3 -5 1 -10 -4 -10 -6 0 -11 5 -11 10 0 6 2 10 4 10 3 0 8 -4
11 -10z m309 -35 c-4 -8 -13 -15 -20 -15 -8 0 -27 -7 -42 -16 l-27 -16 25 22
c14 13 24 26 23 29 -1 4 9 8 22 9 18 1 23 -2 19 -13z m-374 -23 c0 -39 22 -82
41 -82 9 0 19 -9 22 -20 3 -11 12 -20 21 -20 24 0 20 11 -19 54 -19 22 -35 41
-35 42 0 2 8 8 19 13 13 8 23 6 37 -5 18 -14 18 -15 -3 -9 -30 8 -29 -4 3 -31
21 -19 34 -22 80 -18 39 3 53 1 49 -6 -4 -6 -21 -10 -39 -8 -17 2 -31 -1 -31
-7 0 -5 4 -9 9 -7 5 2 13 -3 17 -10 5 -7 21 -11 39 -10 22 3 29 0 25 -10 -3
-8 6 -27 21 -41 21 -21 23 -27 10 -27 -9 0 -16 5 -16 10 0 6 -7 10 -15 10 -8
0 -15 6 -15 13 0 8 -15 13 -45 13 -25 1 -45 -1 -45 -3 0 -7 41 -65 57 -81 7
-8 11 -18 8 -23 -11 -16 7 -10 22 9 10 12 16 14 19 5 3 -7 12 -13 20 -13 9 0
13 -4 9 -10 -3 -5 -12 -7 -20 -3 -8 3 -15 0 -15 -6 0 -6 6 -11 14 -11 7 0 16
-9 19 -20 5 -20 47 -29 47 -10 0 6 -9 10 -20 10 -11 0 -20 5 -20 10 0 6 2 10
4 10 2 0 12 3 22 7 11 4 15 3 11 -4 -9 -14 20 -25 47 -18 17 5 18 4 6 -4 -13
-10 -13 -12 0 -20 8 -5 18 -7 22 -5 4 3 8 0 8 -6 0 -7 -12 -10 -27 -8 -16 2
-28 -2 -31 -11 -4 -11 2 -13 26 -8 25 5 30 3 27 -11 -2 -9 -4 -17 -5 -17 -1 0
-3 -8 -5 -17 -2 -10 1 -18 6 -18 5 0 9 5 9 10 0 6 7 10 15 10 8 0 28 24 45 53
16 28 30 44 30 35 0 -9 -4 -20 -10 -23 -5 -3 -10 -13 -10 -21 0 -9 -7 -22 -15
-31 -8 -8 -13 -19 -10 -23 8 -12 -31 -50 -51 -50 -8 0 -12 -5 -9 -10 4 -7 -3
-8 -22 -4 -38 9 -40 11 -46 34 -4 16 1 22 26 29 23 7 26 9 11 10 -12 1 -27 8
-34 16 -7 8 -19 15 -27 15 -13 0 -13 -3 -3 -15 24 -29 5 -23 -35 12 -31 27
-36 36 -25 43 19 11 -2 60 -26 60 -13 0 -14 -3 -4 -15 28 -34 -10 -12 -44 25
-39 43 -44 55 -21 46 20 -7 19 -4 -9 29 -13 15 -26 23 -30 17 -3 -5 0 -15 7
-20 14 -12 11 -82 -3 -82 -16 0 -70 62 -64 72 5 7 11 5 19 -5 18 -24 21 -21
22 23 2 37 -7 53 -32 56 -5 0 -15 2 -21 2 -6 1 -14 28 -17 60 -4 31 -10 67
-13 80 -4 13 -2 22 5 22 6 0 11 -13 11 -28z m458 8 c-7 -10 -14 -17 -17 -15
-4 4 18 35 25 35 2 0 -1 -9 -8 -20z m-28 -16 c0 -3 -11 -15 -25 -26 -14 -11
-23 -23 -21 -27 3 -4 -4 -26 -15 -48 -16 -32 -24 -40 -40 -36 -20 5 -20 6 1
20 12 8 20 22 18 32 -1 9 13 33 31 54 31 34 51 46 51 31z m-230 -28 c0 -2 -7
-7 -16 -10 -8 -3 -12 -2 -9 4 6 10 25 14 25 6z m323 -41 c-3 -9 -8 -14 -10
-11 -3 3 -2 9 2 15 9 16 15 13 8 -4z m-85 -26 c-2 -6 -8 -10 -13 -10 -5 0 -11
4 -13 10 -2 6 4 11 13 11 9 0 15 -5 13 -11z m-36 -51 c-7 -7 -12 -8 -12 -2 0
14 12 26 19 19 2 -3 -1 -11 -7 -17z m-382 2 c0 -5 -2 -10 -4 -10 -3 0 -8 5
-11 10 -3 6 -1 10 4 10 6 0 11 -4 11 -10z m280 0 c0 -5 -10 -10 -22 -9 -22 0
-22 1 -3 9 11 5 21 9 23 9 1 1 2 -3 2 -9z m-61 -55 l23 -25 -29 0 c-30 0 -69
31 -56 43 13 14 39 6 62 -18z m91 -16 c0 -5 -4 -7 -10 -4 -5 3 -10 2 -10 -3 0
-5 -9 -12 -20 -15 -23 -6 -25 -2 -7 18 14 17 47 20 47 4z m423 -4 c-3 -9 -8
-14 -10 -11 -3 3 -2 9 2 15 9 16 15 13 8 -4z m-326 -107 c-3 -8 -6 -5 -6 6 -1
11 2 17 5 13 3 -3 4 -12 1 -19z m603 13 c0 -20 -13 -41 -25 -41 -17 0 -38 27
-30 40 8 12 55 13 55 1z m57 -38 c4 -11 -32 -24 -41 -15 -3 3 -6 11 -6 19 0
15 42 12 47 -4z m52 -6 c13 -16 5 -27 -21 -27 -20 0 -21 1 -12 24 7 20 18 20
33 3z m56 -7 c-3 -5 -11 -10 -16 -10 -6 0 -7 5 -4 10 3 6 11 10 16 10 6 0 7
-4 4 -10z m-66 -116 c-12 -15 -34 -12 -76 8 -13 6 -23 15 -23 19 0 14 55 15
83 1 23 -11 26 -16 16 -28z m-697 -6 c-7 -7 -12 -8 -12 -2 0 14 12 26 19 19 2
-3 -1 -11 -7 -17z m-35 -19 c-16 -9 -16 -11 -1 -26 13 -14 22 -15 45 -6 33 13
39 4 9 -15 -19 -12 -28 -42 -12 -42 4 0 21 4 39 9 26 8 31 7 26 -5 -3 -9 -12
-13 -20 -10 -7 3 -16 -1 -19 -9 -8 -21 -44 0 -44 25 0 13 -10 21 -32 25 -18 4
-37 10 -42 12 -10 6 42 53 58 53 6 0 3 -5 -7 -11z m263 -22 c0 -2 -12 -14 -26
-28 l-27 -24 18 28 c14 22 35 36 35 24z m20 -85 c0 -5 -14 -19 -31 -31 -31
-23 -31 -14 -1 22 16 18 32 23 32 9z m-180 -18 c0 -2 -7 -4 -15 -4 -8 0 -15 4
-15 10 0 5 7 7 15 4 8 -4 15 -8 15 -10z m99 -93 c7 -5 9 -11 4 -14 -14 -9 -54
4 -47 14 7 11 25 11 43 0z"/>
<path d="M2130 2655 c-14 -8 -20 -14 -14 -15 5 0 19 7 30 15 24 18 16 19 -16
0z"/>
<path d="M2565 3990 c17 -11 37 -20 45 -20 8 1 -1 9 -20 20 -46 25 -63 25 -25
0z"/>
<path d="M2665 3950 c3 -5 11 -10 16 -10 6 0 7 5 4 10 -3 6 -11 10 -16 10 -6
0 -7 -4 -4 -10z"/>
<path d="M2710 3930 c8 -5 20 -10 25 -10 6 0 3 5 -5 10 -8 5 -19 10 -25 10 -5
0 -3 -5 5 -10z"/>
<path d="M2406 3764 c-9 -24 -7 -27 9 -10 17 17 19 26 6 26 -5 0 -12 -7 -15
-16z"/>
<path d="M3335 3730 c3 -5 13 -10 21 -10 8 0 12 5 9 10 -3 6 -13 10 -21 10 -8
0 -12 -4 -9 -10z"/>
<path d="M2320 3719 c0 -7 9 -27 21 -45 25 -40 55 -45 61 -9 3 13 1 22 -4 19
-5 -3 -20 6 -33 20 -25 27 -45 34 -45 15z"/>
<path d="M2540 3695 c0 -8 5 -15 10 -15 6 0 10 7 10 15 0 8 -4 15 -10 15 -5 0
-10 -7 -10 -15z"/>
<path d="M2247 3693 c-2 -5 -7 -20 -11 -35 -5 -23 -3 -25 15 -21 20 6 41 41
32 56 -2 4 -10 7 -18 7 -8 0 -16 -3 -18 -7z"/>
<path d="M2208 3673 c7 -3 16 -2 19 1 4 3 -2 6 -13 5 -11 0 -14 -3 -6 -6z"/>
<path d="M3454 3622 c-5 -4 -25 -28 -43 -53 -18 -26 -68 -75 -111 -108 -56
-45 -83 -73 -94 -102 -19 -48 -19 -49 -3 -49 18 0 78 46 70 53 -3 4 -2 7 4 7
6 0 28 16 49 36 36 32 37 35 13 29 -21 -5 -14 6 41 63 37 39 72 84 78 101 12
34 12 34 -4 23z m-194 -252 c0 -5 -8 -10 -17 -10 -15 0 -16 2 -3 10 19 12 20
12 20 0z"/>
<path d="M2237 3593 c3 -7 9 -13 13 -13 4 0 12 6 18 13 8 9 5 12 -13 12 -14 0
-21 -5 -18 -12z"/>
<path d="M2480 3600 c0 -5 5 -10 10 -10 6 0 10 5 10 10 0 6 -4 10 -10 10 -5 0
-10 -4 -10 -10z"/>
<path d="M2545 3580 c-3 -5 -1 -10 4 -10 6 0 11 5 11 10 0 6 -2 10 -4 10 -3 0
-8 -4 -11 -10z"/>
<path d="M2195 3550 c-3 -5 -1 -10 4 -10 6 0 11 5 11 10 0 6 -2 10 -4 10 -3 0
-8 -4 -11 -10z"/>
<path d="M2650 3528 c0 -4 -7 -8 -16 -8 -8 0 -13 -4 -10 -9 8 -13 -37 -22 -74
-14 -34 6 -35 4 -13 -54 6 -15 -13 -17 -22 -3 -3 6 -13 10 -21 10 -10 0 -8 -6
7 -21 16 -16 26 -19 43 -12 11 5 35 6 53 3 17 -4 52 -4 77 0 25 4 46 5 46 3 0
-2 9 1 19 6 29 16 129 21 181 10 104 -22 100 -18 55 -39 -22 -11 -45 -19 -51
-20 -6 0 -29 -14 -50 -31 -35 -27 -43 -30 -84 -24 -54 8 -93 28 -43 22 18 -2
29 1 26 5 -3 5 -19 8 -37 7 -17 -1 -43 1 -57 5 -14 4 -43 6 -65 4 l-39 -4 32
-13 c42 -16 53 -42 15 -35 -15 3 -38 0 -52 -6 -25 -10 -25 -10 3 -5 33 7 56
-3 36 -16 -10 -6 -8 -9 9 -9 13 0 20 -4 17 -10 -3 -5 6 -12 20 -16 14 -3 34
-17 44 -30 13 -17 21 -20 24 -12 4 9 8 10 14 2 16 -22 55 -36 66 -25 15 15 70
15 61 -1 -5 -8 -2 -9 10 -5 10 4 29 10 43 13 17 5 21 9 13 14 -18 11 -3 30 17
23 12 -5 15 -2 10 10 -6 15 -3 16 14 7 11 -6 17 -15 14 -21 -4 -5 -1 -9 4 -9
6 0 11 7 11 15 0 8 4 15 9 15 15 0 23 -18 11 -25 -14 -9 -12 -25 3 -25 16 0
57 82 57 114 0 16 7 26 21 29 12 3 18 10 14 16 -3 6 -2 11 4 11 18 0 33 41 27
75 -6 31 -12 35 -69 54 -34 11 -93 25 -131 31 -77 12 -296 11 -296 -2z m53
-244 c-1 -6 12 -11 28 -11 16 0 35 -5 42 -13 10 -10 3 -11 -35 -7 -50 5 -82
22 -72 39 8 12 40 5 37 -8z"/>
<path d="M2229 3454 c-11 -14 -10 -16 9 -12 13 1 23 7 23 13 1 17 -17 16 -32
-1z"/>
<path d="M2185 3450 c-3 -5 1 -10 9 -10 9 0 16 5 16 10 0 6 -4 10 -9 10 -6 0
-13 -4 -16 -10z"/>
<path d="M2190 3346 c0 -9 5 -16 10 -16 6 0 10 4 10 9 0 6 -4 13 -10 16 -5 3
-10 -1 -10 -9z"/>
<path d="M2395 3350 c4 -6 11 -8 16 -5 14 9 11 15 -7 15 -8 0 -12 -5 -9 -10z"/>
<path d="M2160 3334 c0 -8 5 -12 10 -9 6 4 8 11 5 16 -9 14 -15 11 -15 -7z"/>
<path d="M2345 3320 c-3 -4 1 -12 8 -18 24 -19 59 -24 120 -16 53 6 57 9 32
14 -16 4 -44 5 -62 2 -17 -2 -45 3 -62 11 -17 8 -33 12 -36 7z"/>
<path d="M1465 3187 c-14 -24 -25 -47 -25 -51 0 -3 -11 -24 -25 -45 -73 -116
-100 -249 -70 -347 19 -61 69 -168 89 -190 6 -7 34 -45 61 -84 28 -39 72 -99
99 -133 26 -34 53 -71 58 -82 5 -11 23 -30 39 -40 16 -11 62 -60 102 -110 39
-49 102 -123 140 -163 37 -41 76 -91 87 -112 25 -49 49 -119 46 -134 -2 -6 -1
-7 2 -2 2 5 15 -13 28 -40 19 -39 26 -76 34 -179 18 -238 18 -238 -5 -257 -11
-10 -25 -17 -30 -18 -6 0 -16 -9 -23 -20 -10 -17 -10 -20 3 -20 9 0 20 -11 25
-25 12 -32 38 -32 45 0 3 14 7 36 10 50 15 72 59 -14 59 -116 1 -49 6 -82 15
-92 9 -12 10 -17 2 -17 -7 0 -5 -9 6 -24 10 -13 24 -21 32 -18 12 4 13 -4 8
-44 -10 -90 -18 -99 -119 -150 -103 -52 -108 -55 -90 -61 6 -3 10 -9 6 -14 -3
-5 26 -7 71 -4 57 4 77 2 81 -8 2 -7 -12 -69 -32 -138 -20 -68 -40 -137 -44
-154 -7 -27 -20 -60 -61 -162 -12 -29 -11 -35 8 -55 11 -13 31 -47 43 -75 l22
-53 859 0 858 0 53 31 c29 17 73 45 98 63 44 30 97 58 133 70 30 10 19 23 -39
45 -67 25 -138 27 -237 5 -84 -19 -111 -40 -113 -89 -1 -45 -10 -54 -29 -29
-10 14 -12 34 -8 72 6 52 -6 153 -29 242 -7 25 -13 73 -13 107 -1 35 -7 69
-15 78 -9 11 -13 43 -11 104 1 53 -3 100 -11 117 -7 16 -13 63 -14 104 -4 135
-20 264 -37 303 -11 26 -15 54 -12 85 3 32 -1 58 -14 87 -11 22 -22 64 -26 94
-4 30 -18 75 -31 99 -13 25 -24 59 -24 77 0 18 -13 56 -29 86 -15 30 -31 76
-35 103 -4 26 -18 67 -30 90 -13 22 -26 54 -30 70 -16 65 -100 113 -141 82
-11 -9 -25 -16 -31 -16 -5 0 -50 40 -100 90 -59 60 -96 90 -111 90 -30 0 -28
-8 7 -50 17 -19 30 -42 30 -52 0 -10 21 -42 48 -72 134 -153 152 -176 152
-189 0 -8 -9 -26 -20 -40 -11 -14 -20 -34 -20 -45 0 -26 40 -58 83 -66 23 -4
43 -19 65 -48 35 -46 41 -82 15 -97 -14 -7 -15 -12 -4 -25 37 -44 -67 -73
-295 -81 -67 -2 -148 -10 -180 -18 -32 -8 -122 -25 -199 -37 -91 -14 -170 -34
-225 -55 -47 -18 -99 -36 -117 -39 -35 -8 -31 -16 -83 179 -29 110 -49 155
-163 368 -24 47 -13 59 45 55 35 -3 37 -2 40 27 l3 30 24 -42 c27 -48 41 -54
41 -20 0 39 14 49 53 42 36 -7 36 -7 39 32 3 35 6 38 35 41 27 3 35 -1 44 -22
6 -13 9 -36 5 -50 -6 -24 -10 -26 -45 -20 l-39 6 -4 -43 c-6 -51 -3 -55 38
-63 30 -7 31 -5 40 36 8 35 13 43 31 41 17 -2 24 6 35 40 14 46 36 57 61 32
11 -10 25 -13 42 -9 32 8 33 28 0 22 -28 -6 -32 11 -15 56 11 31 35 35 27 6
-6 -25 -10 -25 95 7 89 28 114 43 57 35 -19 -3 -34 0 -39 8 -10 15 -48 21 -56
8 -9 -13 -44 -9 -50 6 -8 20 -34 8 -34 -16 0 -14 -6 -19 -22 -16 -13 2 -22 9
-20 17 2 10 -4 12 -25 6 -15 -4 -41 -8 -58 -9 -16 -2 -43 -8 -58 -14 -35 -15
-44 -15 -49 -1 -2 7 -18 3 -42 -10 -36 -21 -39 -21 -52 -4 -18 25 -18 25 21
63 l34 33 18 -31 18 -31 28 27 29 27 17 -22 18 -22 22 23 c25 26 27 46 6 46
-8 0 -15 4 -15 9 0 18 -35 22 -47 5 -12 -16 -14 -15 -34 10 l-21 27 -20 -32
-20 -33 -39 42 c-21 23 -40 42 -42 42 -11 0 -4 -61 8 -68 21 -11 5 -60 -25
-75 -21 -10 -25 -21 -28 -60 -2 -45 -1 -47 17 -37 11 5 23 15 26 20 3 6 14 10
23 10 13 0 17 -10 19 -40 1 -37 -1 -40 -20 -34 -12 4 -34 13 -48 20 -25 12
-29 11 -69 -27 -23 -22 -47 -38 -53 -36 -13 3 -41 44 -236 342 -68 105 -152
226 -185 270 -33 44 -71 107 -84 140 -13 33 -28 65 -32 70 -4 6 -18 42 -31 80
-33 96 -34 247 -2 318 27 59 12 62 -22 4z m1019 -1083 c3 -9 6 -27 6 -40 0
-22 -3 -24 -27 -18 -50 12 -66 37 -41 62 17 17 55 15 62 -4z m-174 -18 c0 -9
-30 -14 -35 -6 -4 6 3 10 14 10 12 0 21 -2 21 -4z m845 -36 c3 -5 1 -10 -4
-10 -6 0 -11 5 -11 10 0 6 2 10 4 10 3 0 8 -4 11 -10z m163 -22 c-20 -34 -37
-50 -48 -43 -5 3 2 19 17 35 31 35 49 39 31 8z m-103 -48 c3 -5 1 -10 -4 -10
-6 0 -11 5 -11 10 0 6 2 10 4 10 3 0 8 -4 11 -10z m141 -147 c22 -30 17 -50
-6 -25 -20 21 -26 42 -14 42 4 0 13 -8 20 -17z m-1016 -787 c0 -2 -7 -6 -15
-10 -8 -3 -15 -1 -15 4 0 6 7 10 15 10 8 0 15 -2 15 -4z m60 -51 c4 3 10 -4
13 -14 3 -14 -2 -21 -20 -26 -14 -3 -28 -4 -31 0 -3 3 0 5 6 5 7 0 12 5 12 10
0 6 -11 10 -25 10 -14 0 -25 -4 -25 -10 0 -5 -5 -10 -11 -10 -16 0 -1 51 19
66 13 10 19 7 35 -12 10 -13 22 -22 27 -19z m-90 14 c0 -6 -4 -7 -10 -4 -5 3
-10 11 -10 16 0 6 5 7 10 4 6 -3 10 -11 10 -16z"/>
<path d="M3070 3121 c0 -12 6 -21 16 -21 9 0 14 7 12 17 -5 25 -28 28 -28 4z"/>
<path d="M2925 3042 c-5 -14 19 -27 34 -18 5 3 36 -8 69 -24 34 -17 63 -30 65
-30 15 0 15 36 1 60 -16 26 -20 27 -90 26 -50 -1 -75 -5 -79 -14z"/>
<path d="M3010 2676 c0 -9 7 -16 16 -16 9 0 14 5 12 12 -6 18 -28 21 -28 4z"/>
<path d="M2505 2474 c-9 -9 -13 -19 -10 -22 3 -3 15 4 28 16 12 12 16 22 10
22 -6 0 -19 -7 -28 -16z"/>
<path d="M2485 2410 c-3 -5 -1 -10 4 -10 6 0 11 5 11 10 0 6 -2 10 -4 10 -3 0
-8 -4 -11 -10z"/>
<path d="M2807 2383 c-11 -11 -8 -63 4 -63 6 0 9 -6 7 -12 -3 -7 -9 -13 -14
-13 -15 0 -34 -15 -34 -27 0 -5 7 -8 15 -4 10 3 15 -1 15 -12 1 -15 2 -15 15
2 8 11 15 28 15 37 0 10 5 19 12 21 9 3 7 14 -5 41 -19 40 -20 41 -30 30z"/>
<path d="M2534 2366 c-3 -7 -4 -17 -3 -22 4 -21 -2 -34 -23 -54 -28 -26 -20
-33 20 -18 25 10 32 18 32 40 0 15 -4 28 -9 28 -5 0 -7 9 -4 20 6 22 -5 28
-13 6z"/>
<path d="M2970 2370 c0 -5 5 -10 11 -10 5 0 7 5 4 10 -3 6 -8 10 -11 10 -2 0
-4 -4 -4 -10z"/>
<path d="M2682 2350 c0 -14 2 -19 5 -12 2 6 2 18 0 25 -3 6 -5 1 -5 -13z"/>
<path d="M3080 2360 c0 -5 5 -10 11 -10 5 0 7 5 4 10 -3 6 -8 10 -11 10 -2 0
-4 -4 -4 -10z"/>
<path d="M2926 2319 c-12 -12 -16 -24 -11 -36 8 -17 8 -17 13 2 2 11 9 23 14
26 6 4 9 11 7 16 -2 6 -12 2 -23 -8z"/>
<path d="M2847 2291 c-6 -23 12 -53 20 -33 2 6 11 12 19 12 12 0 12 4 2 20
-16 25 -34 26 -41 1z"/>
<path d="M2895 2250 c-3 -5 -1 -10 4 -10 6 0 11 5 11 10 0 6 -2 10 -4 10 -3 0
-8 -4 -11 -10z"/>
<path d="M2785 2221 c-3 -5 -1 -12 5 -16 5 -3 10 1 10 9 0 18 -6 21 -15 7z"/>
<path d="M2500 2209 c0 -5 5 -7 10 -4 6 3 10 8 10 11 0 2 -4 4 -10 4 -5 0 -10
-5 -10 -11z"/>
<path d="M2920 2211 c0 -6 5 -13 10 -16 6 -3 10 1 10 9 0 9 -4 16 -10 16 -5 0
-10 -4 -10 -9z"/>
<path d="M2940 2148 c0 -7 5 -20 10 -28 7 -12 12 -12 21 -3 9 9 9 16 -1 28
-15 18 -30 20 -30 3z"/>
<path d="M2875 2126 c-23 -19 -27 -27 -18 -37 9 -9 17 -5 37 17 42 48 31 60
-19 20z"/>
<path d="M2803 2126 c-20 -9 -31 -26 -18 -26 12 0 55 24 55 32 0 10 -8 9 -37
-6z"/>
<path d="M2458 1900 c-3 -16 -3 -30 -2 -30 2 0 10 14 19 30 13 25 13 30 1 30
-8 0 -16 -13 -18 -30z"/>
<path d="M2180 1912 c0 -15 25 -62 33 -62 4 0 10 7 13 15 10 24 23 17 41 -20
9 -19 20 -35 24 -35 5 0 29 53 29 66 0 4 -81 32 -112 38 -16 4 -28 3 -28 -2z"/>
<path d="M2386 1811 c-3 -22 -9 -42 -14 -44 -4 -3 -25 1 -47 9 -22 7 -51 14
-64 14 -37 0 -11 -23 45 -39 l48 -14 43 47 c49 55 53 66 19 66 -20 0 -24 -6
-30 -39z"/>
<path d="M253 928 c-67 -71 -82 -174 -38 -271 27 -59 26 -71 -13 -144 -14 -28
-22 -33 -52 -33 -46 -1 -70 -33 -77 -104 -5 -52 -5 -54 36 -94 39 -38 43 -47
57 -129 8 -48 20 -103 27 -120 l11 -33 91 0 90 0 18 36 c24 48 22 61 -18 142
-32 63 -35 74 -26 111 5 23 16 52 25 66 21 32 21 124 -1 185 -15 43 -16 59 -5
132 16 109 15 138 -3 181 -12 29 -77 107 -88 107 -2 0 -17 -15 -34 -32z"/>
<path d="M4597 226 c-19 -18 -37 -41 -40 -50 -4 -9 -13 -16 -22 -16 -8 0 -15
-6 -15 -13 0 -16 -54 -67 -72 -67 -10 0 -9 -3 2 -10 8 -5 13 -10 10 -11 -44
-9 -70 -8 -82 4 -9 10 -20 12 -35 6 -13 -5 -25 -4 -28 1 -3 5 -18 9 -33 9 -42
1 -100 8 -110 15 -11 7 -22 -26 -22 -66 l0 -28 234 0 c231 0 235 0 250 22 18
25 20 38 8 38 -5 0 -15 -11 -22 -25 -15 -27 -33 -35 -23 -9 3 9 1 19 -6 23 -8
6 -8 17 4 44 8 20 19 37 24 37 10 0 24 31 17 37 -3 3 -11 1 -18 -3 -22 -14
-46 -12 -41 3 8 21 77 53 100 47 12 -3 34 1 49 9 l29 15 -28 11 c-54 21 -94
14 -130 -23z"/>
<path d="M4670 129 c0 -18 2 -19 15 -9 8 7 15 16 15 21 0 5 -7 9 -15 9 -9 0
-15 -9 -15 -21z"/>
<path d="M4622 108 c-16 -16 -15 -28 3 -28 8 0 15 2 15 4 0 2 3 11 6 20 7 19
-7 21 -24 4z"/>
<path d="M510 73 c0 -6 6 -15 13 -20 23 -14 37 -11 37 8 0 10 -7 19 -15 19 -8
0 -15 -6 -15 -12 0 -9 -4 -8 -10 2 -6 9 -10 10 -10 3z"/>
</g>
</svg>
